<svg width="177" height="200" viewBox="0 0 177 200" fill="none" xmlns="http://www.w3.org/2000/svg">
<path fill-rule="evenodd" clip-rule="evenodd" d="M75.3597 0.783171C63.2513 3.85422 53.253 13.7261 48.8493 26.9587C47.6836 30.4607 45.9356 41.2324 45.9356 44.9124C45.9356 44.9957 41.3231 45.2575 35.6849 45.4935C17.9119 46.2381 15.0436 46.5649 13.3316 48.0383C11.5577 49.5653 11.7754 47.7966 7.14774 98.261C5.60415 115.093 3.34081 139.512 2.1183 152.527C-0.620675 181.685 -0.613736 181.242 1.62122 183.275C3.35279 184.85 24.0799 194.433 33.6348 198.076L38.6813 200L50.9821 199.277C65.9278 198.399 122.945 194.534 139.926 193.249C146.692 192.737 156.769 191.995 162.32 191.6C173.709 190.79 176.246 190.066 176.929 187.431C177.426 185.511 175.284 145.227 171.541 86.0992C169.313 50.9093 169.126 48.9451 167.868 47.6875C166.787 46.6053 164.878 46.1485 157.492 45.2014C152.515 44.5628 146.827 44.0302 144.852 44.0183C142.878 44.0056 141.095 43.7248 140.89 43.3936C140.686 43.0623 140.213 40.2941 139.84 37.2414C139.014 30.4809 136.651 22.0912 134.37 17.8232C128.76 7.32406 115.958 0.902429 104.541 2.86103C100.293 3.5892 99.8395 3.54503 95.5532 1.98585C89.8532 -0.0876006 80.8951 -0.620791 75.3597 0.783171ZM77.396 7.32469C70.259 8.8233 60.3704 16.8754 57.1577 23.8037C55.0375 28.3772 53.6125 34.4429 53.3791 39.8941L53.1899 44.311L59.8134 44.5047C63.4563 44.6108 67.6115 44.5275 69.0472 44.3186L71.6581 43.9394L72.0795 39.7079C72.5551 34.9351 74.3706 28.8006 76.6939 24.1192C78.7926 19.8897 84.5954 12.8478 87.9917 10.4084C89.5062 9.31989 90.5275 8.21944 90.2613 7.96262C89.5252 7.25212 79.9924 6.77951 77.396 7.32469ZM108.386 9.63917C108.386 9.84361 109.497 11.3397 110.854 12.9639C116.425 19.6291 119.287 28.4725 119.051 38.2907L118.922 43.68H132.672L132.445 39.5786C131.78 27.5872 125.994 16.2444 118.662 12.5575C115.169 10.8008 108.386 8.87441 108.386 9.63917ZM93.2135 14.8846C84.8042 21.0911 79.4808 30.5617 78.5339 40.9983L78.2621 43.9955H111.393L111.773 42.5758C112.437 40.0947 112.186 33.0661 111.315 29.795C108.935 20.8545 102.321 11.7795 98.2184 11.8243C97.7389 11.8294 95.4863 13.2068 93.2135 14.8846ZM100.816 88.8434C86.648 90.9857 74.1978 102.528 70.8835 116.593C69.7556 121.381 69.6263 129.018 70.5939 133.724C71.8518 139.841 75.8921 147.201 80.5279 151.821C98.7571 169.989 128.697 164.838 139.892 141.607C150.377 119.85 137.583 94.0031 113.932 89.1608C108.689 88.0869 106.215 88.0276 100.816 88.8434ZM97.1725 98.8737C91.9216 101.358 88.5329 103.746 84.7234 107.645C81.2609 111.188 78.7377 115.357 78.7377 117.532C78.7377 118.424 79.255 119.113 80.157 119.421C81.9536 120.034 128.512 120.593 132.163 120.045C135.413 119.558 135.529 118.93 133.271 114.075C131.35 109.948 127.303 104.857 123.799 102.159C120.877 99.9104 113.649 96.999 110.985 96.999H109.198L108.634 105.675C108.11 113.742 107.982 114.351 106.809 114.351C105.631 114.351 105.526 113.826 105.232 106.464C105.058 102.126 104.687 98.2219 104.406 97.7878C103.595 96.534 101.43 96.8583 97.1725 98.8737ZM114.17 104.085C113.259 104.996 113.18 113.175 114.076 113.729C114.775 114.161 127.246 114.31 127.665 113.892C127.805 113.751 126.434 112.094 124.618 110.208C120.68 106.118 115.294 102.961 114.17 104.085ZM95.7109 105.735C92.5676 107.728 88.1998 112.493 88.1998 113.929C88.1998 114.707 89.1309 114.79 93.9989 114.444C97.5339 114.193 99.9928 113.725 100.297 113.245C100.572 112.812 100.801 110.542 100.807 108.199C100.818 103.161 100.222 102.873 95.7109 105.735ZM84.4831 123.997L77.9284 124.178L78.2911 128.978C78.768 135.281 81.4224 140.786 86.3837 145.757C90.3503 149.731 97.5699 153.642 102.048 154.243L104.601 154.585V129.734L109.332 130.126L109.033 154.56L112.021 154.144C116.26 153.554 122.295 150.457 126.246 146.846C131.866 141.707 136.75 130.089 135.164 125.629L134.564 123.941L112.801 123.879C100.832 123.844 88.0888 123.898 84.4831 123.997ZM84.4289 130.915C84.4888 135.702 94.6827 146.848 99.0018 146.848C100.357 146.848 101.044 142.223 100.594 136.121C100.428 133.865 100.268 131.523 100.238 130.915C100.191 129.925 99.3689 129.811 92.3001 129.811C85.206 129.811 84.4162 129.921 84.4289 130.915ZM114.1 135.963C114.119 139.347 114.332 143.13 114.573 144.369C115 146.574 115.057 146.611 117.139 146.066C121.297 144.977 129.202 135.165 129.202 131.094C129.202 129.875 128.823 129.811 121.633 129.811H114.063L114.1 135.963Z" fill="#A2201A"/>
</svg>
